<svg xmlns="http://www.w3.org/2000/svg" width="1000" height="260" viewBox="0 0 1000 260" role="img" aria-label="William Ho — Embedded Audio · DSP">
  <defs>
    <clipPath id="screen"><rect x="14" y="50" width="972" height="196" rx="10"/></clipPath>
    <linearGradient id="glow" x1="0" y1="0" x2="0" y2="1">
      <stop offset="0" stop-color="#36BCF7" stop-opacity="0.10"/>
      <stop offset="1" stop-color="#36BCF7" stop-opacity="0"/>
    </linearGradient>
    <radialGradient id="vign" cx="50%" cy="42%" r="75%">
      <stop offset="0" stop-color="#36BCF7" stop-opacity="0.06"/>
      <stop offset="1" stop-color="#000000" stop-opacity="0.45"/>
    </radialGradient>
    <filter id="soft" x="-20%" y="-60%" width="140%" height="220%">
      <feGaussianBlur stdDeviation="2.2"/>
    </filter>
    <style>
      .mono { font-family: ui-monospace,'SFMono-Regular',Menlo,Consolas,'Liberation Mono',monospace; }
      .sans { font-family: -apple-system,BlinkMacSystemFont,'Segoe UI',Roboto,Helvetica,Arial,sans-serif; }
    </style>
  </defs>

  <!-- card -->
  <rect x="1" y="1" width="998" height="258" rx="16" fill="#0d1117" stroke="#26303d" stroke-width="1.5"/>

  <!-- title bar -->
  <circle cx="26" cy="26" r="6" fill="#ff5f57"/>
  <circle cx="46" cy="26" r="6" fill="#febc2e"/>
  <circle cx="66" cy="26" r="6" fill="#28c840"/>
  <text x="90" y="31" class="mono" font-size="13" fill="#7d8da0">william-ho — scope --live · 48kHz/24-bit</text>
  <text x="986" y="31" text-anchor="end" class="mono" font-size="12" fill="#2a83c8">● CH1  A2DP</text>

  <!-- scope screen -->
  <rect x="14" y="50" width="972" height="196" rx="10" fill="#05080d"/>
  <g clip-path="url(#screen)">
    <rect x="14" y="50" width="972" height="196" fill="url(#vign)"/>
    <line x1="60" y1="52" x2="60" y2="246" stroke="#16324a" stroke-width="1"/><line x1="128" y1="52" x2="128" y2="246" stroke="#16324a" stroke-width="1"/><line x1="196" y1="52" x2="196" y2="246" stroke="#16324a" stroke-width="1"/><line x1="264" y1="52" x2="264" y2="246" stroke="#16324a" stroke-width="1"/><line x1="332" y1="52" x2="332" y2="246" stroke="#16324a" stroke-width="1"/><line x1="400" y1="52" x2="400" y2="246" stroke="#16324a" stroke-width="1"/><line x1="468" y1="52" x2="468" y2="246" stroke="#16324a" stroke-width="1"/><line x1="536" y1="52" x2="536" y2="246" stroke="#16324a" stroke-width="1"/><line x1="604" y1="52" x2="604" y2="246" stroke="#16324a" stroke-width="1"/><line x1="672" y1="52" x2="672" y2="246" stroke="#16324a" stroke-width="1"/><line x1="740" y1="52" x2="740" y2="246" stroke="#16324a" stroke-width="1"/><line x1="808" y1="52" x2="808" y2="246" stroke="#16324a" stroke-width="1"/><line x1="876" y1="52" x2="876" y2="246" stroke="#16324a" stroke-width="1"/><line x1="944" y1="52" x2="944" y2="246" stroke="#16324a" stroke-width="1"/><line x1="14" y1="80" x2="986" y2="80" stroke="#16324a" stroke-width="1"/><line x1="14" y1="120" x2="986" y2="120" stroke="#16324a" stroke-width="1"/><line x1="14" y1="160" x2="986" y2="160" stroke="#16324a" stroke-width="1"/><line x1="14" y1="200" x2="986" y2="200" stroke="#16324a" stroke-width="1"/><line x1="14" y1="240" x2="986" y2="240" stroke="#16324a" stroke-width="1"/>
    <line x1="14" y1="163" x2="986" y2="163" stroke="#1d3d59" stroke-width="1.2" stroke-dasharray="2 5"/>
    <rect x="14" y="120" width="972" height="86" fill="url(#glow)"/>

    <!-- scrolling waveform -->
    <g transform="translate(-52,182)">
      <g>
        <polyline points="0,-16.2 6,-14.6 12,-9.3 18,-4.5 24,-2.8 30,-3.7 36,-4.2 42,-1.6 48,4.8 54,12.6 60,17.5 66,16.5 72,9.4 78,-0.6 84,-9.0 90,-12.7 96,-11.2 102,-7.0 108,-3.3 114,-2.0 120,-2.6 126,-3.0 132,-1.1 138,3.3 144,8.4 150,11.5 156,10.6 162,5.9 168,-0.4 174,-5.5 180,-7.5 186,-6.5 192,-4.0 198,-1.8 204,-1.1 210,-1.4 216,-1.5 222,-0.6 228,1.6 234,3.9 240,5.2 246,4.6 252,2.5 258,-0.1 264,-2.1 270,-2.7 276,-2.3 282,-1.3 288,-0.6 294,-0.3 300,-0.4 306,-0.4 312,-0.1 318,0.3 324,0.7 330,0.9 336,0.7 342,0.3 348,-0.0 354,-0.2 360,-0.2 366,-0.1 372,-0.0 378,-0.0 384,-0.0 390,-0.0 396,-0.0 402,-0.0 408,0.0 414,0.1 420,0.3 426,0.3 432,0.3 438,-0.0 444,-0.4 450,-0.8 456,-0.8 462,-0.6 468,-0.4 474,-0.3 480,-0.4 486,-0.5 492,-0.2 498,0.8 504,2.3 510,3.6 516,3.7 522,2.4 528,-0.2 534,-2.8 540,-4.3 546,-4.2 552,-2.9 558,-1.5 564,-1.0 570,-1.4 576,-1.8 582,-0.7 588,2.3 594,6.4 600,9.5 606,9.6 612,5.8 618,-0.4 624,-6.4 630,-9.5 636,-8.9 642,-5.9 648,-3.0 654,-1.9 660,-2.7 666,-3.2 672,-1.3 678,4.0 684,10.9 690,15.9 696,15.6 702,9.3 708,-0.6 714,-9.7 720,-14.3 726,-13.2 732,-8.6 738,-4.3 744,-2.7 750,-3.7 756,-4.4 762,-1.7 768,5.3 774,14.1 780,20.2 786,19.5 792,11.5 798,-0.8 804,-11.7 810,-16.8 816,-15.3 822,-9.9 828,-4.8 834,-3.0 840,-4.1 846,-4.8 852,-1.8 858,5.6 864,14.7 870,20.8 876,19.9 882,11.5 888,-0.7 894,-11.4 900,-16.2 906,-14.6 912,-9.3 918,-4.5 924,-2.8 930,-3.7 936,-4.2 942,-1.6 948,4.8 954,12.6 960,17.5 966,16.5 972,9.4 978,-0.6 984,-9.0 990,-12.7 996,-11.2 1002,-7.0 1008,-3.3 1014,-2.0 1020,-2.6 1026,-3.0 1032,-1.1 1038,3.3 1044,8.4 1050,11.5 1056,10.6 1062,5.9 1068,-0.4 1074,-5.5 1080,-7.5 1086,-6.5 1092,-4.0 1098,-1.8 1104,-1.1 1110,-1.4 1116,-1.5 1122,-0.6 1128,1.6 1134,3.9 1140,5.2 1146,4.6 1152,2.5 1158,-0.1 1164,-2.1 1170,-2.7 1176,-2.3 1182,-1.3 1188,-0.6 1194,-0.3 1200,-0.4 1206,-0.4 1212,-0.1 1218,0.3 1224,0.7 1230,0.9 1236,0.7 1242,0.3 1248,-0.0 1254,-0.2 1260,-0.2 1266,-0.1 1272,-0.0 1278,-0.0 1284,-0.0 1290,-0.0 1296,-0.0 1302,-0.0 1308,0.0 1314,0.1 1320,0.3 1326,0.3 1332,0.3 1338,-0.0 1344,-0.4 1350,-0.8 1356,-0.8 1362,-0.6 1368,-0.4 1374,-0.3 1380,-0.4 1386,-0.5 1392,-0.2 1398,0.8 1404,2.3 1410,3.6 1416,3.7 1422,2.4 1428,-0.2 1434,-2.8 1440,-4.3 1446,-4.2 1452,-2.9 1458,-1.5 1464,-1.0 1470,-1.4 1476,-1.8 1482,-0.7 1488,2.3 1494,6.4 1500,9.5 1506,9.6 1512,5.8 1518,-0.4 1524,-6.4 1530,-9.5 1536,-8.9 1542,-5.9 1548,-3.0 1554,-1.9 1560,-2.7 1566,-3.2 1572,-1.3 1578,4.0 1584,10.9 1590,15.9 1596,15.6 1602,9.3 1608,-0.6 1614,-9.7 1620,-14.3 1626,-13.2 1632,-8.6 1638,-4.3 1644,-2.7 1650,-3.7 1656,-4.4 1662,-1.7 1668,5.3 1674,14.1 1680,20.2 1686,19.5 1692,11.5 1698,-0.8 1704,-11.7 1710,-16.8 1716,-15.3 1722,-9.9 1728,-4.8 1734,-3.0 1740,-4.1 1746,-4.8 1752,-1.8 1758,5.6 1764,14.7 1770,20.8 1776,19.9 1782,11.5 1788,-0.7 1794,-11.4 1800,-16.2 1806,-14.6 1812,-9.3 1818,-4.5 1824,-2.8 1830,-3.7 1836,-4.2 1842,-1.6 1848,4.8 1854,12.6 1860,17.5 1866,16.5 1872,9.4 1878,-0.6 1884,-9.0 1890,-12.7 1896,-11.2 1902,-7.0 1908,-3.3 1914,-2.0 1920,-2.6 1926,-3.0 1932,-1.1 1938,3.3 1944,8.4 1950,11.5 1956,10.6 1962,5.9 1968,-0.4 1974,-5.5 1980,-7.5 1986,-6.5 1992,-4.0 1998,-1.8 2004,-1.1 2010,-1.4 2016,-1.5 2022,-0.6 2028,1.6 2034,3.9 2040,5.2 2046,4.6 2052,2.5 2058,-0.1 2064,-2.1 2070,-2.7 2076,-2.3 2082,-1.3 2088,-0.6 2094,-0.3 2100,-0.4 2106,-0.4 2112,-0.1 2118,0.3 2124,0.7 2130,0.9 2136,0.7 2142,0.3 2148,-0.0 2154,-0.2 2160,-0.2 2166,-0.1 2172,-0.0 2178,-0.0 2184,-0.0 2190,-0.0 2196,-0.0 2202,-0.0 2208,0.0 2214,0.1 2220,0.3 2226,0.3 2232,0.3 2238,-0.0 2244,-0.4 2250,-0.8 2256,-0.8 2262,-0.6 2268,-0.4 2274,-0.3 2280,-0.4 2286,-0.5 2292,-0.2 2298,0.8 2304,2.3 2310,3.6 2316,3.7 2322,2.4 2328,-0.2 2334,-2.8 2340,-4.3 2346,-4.2 2352,-2.9 2358,-1.5 2364,-1.0 2370,-1.4 2376,-1.8 2382,-0.7 2388,2.3 2394,6.4 2400,9.5 2406,9.6 2412,5.8 2418,-0.4 2424,-6.4 2430,-9.5 2436,-8.9 2442,-5.9 2448,-3.0 2454,-1.9 2460,-2.7 2466,-3.2 2472,-1.3 2478,4.0 2484,10.9 2490,15.9 2496,15.6 2502,9.3 2508,-0.6 2514,-9.7 2520,-14.3 2526,-13.2 2532,-8.6 2538,-4.3 2544,-2.7 2550,-3.7 2556,-4.4 2562,-1.7 2568,5.3 2574,14.1 2580,20.2 2586,19.5 2592,11.5 2598,-0.8 2604,-11.7 2610,-16.8 2616,-15.3 2622,-9.9 2628,-4.8 2634,-3.0 2640,-4.1 2646,-4.8 2652,-1.8 2658,5.6 2664,14.7 2670,20.8 2676,19.9 2682,11.5 2688,-0.7 2694,-11.4 2700,-16.2" fill="none" stroke="#2a83c8" stroke-opacity="0.45" stroke-width="1.4" stroke-linejoin="round"/>
        <polyline points="0,-6.5 6,-11.9 12,-15.0 18,-15.8 24,-15.2 30,-14.6 36,-14.9 42,-16.8 48,-19.6 54,-22.2 60,-22.7 66,-19.8 72,-13.2 78,-3.5 84,7.3 90,16.9 96,23.2 102,25.2 108,23.3 114,19.0 120,14.4 126,11.2 132,10.2 138,11.0 144,12.0 150,11.1 156,7.0 162,-0.7 168,-10.9 174,-21.1 180,-28.6 186,-31.4 192,-28.6 198,-21.0 204,-11.0 210,-1.1 216,6.4 222,10.3 228,11.3 234,11.0 240,11.3 246,14.0 252,19.3 258,26.1 264,32.1 270,34.8 276,32.6 282,25.2 288,13.7 294,0.7 300,-11.1 306,-19.5 312,-23.5 318,-23.7 324,-21.9 330,-20.0 336,-19.6 342,-21.2 348,-23.8 354,-25.7 360,-25.2 366,-21.1 372,-13.4 378,-3.4 384,6.8 390,15.2 396,20.0 402,20.9 408,18.5 414,14.5 420,10.5 426,7.8 432,6.8 438,7.0 444,7.3 450,6.5 456,3.9 462,-0.4 468,-5.6 474,-10.3 480,-13.4 486,-14.0 492,-12.1 498,-8.5 504,-4.2 510,-0.4 516,2.2 522,3.4 528,3.6 534,3.3 540,3.2 546,3.8 552,5.0 558,6.4 564,7.5 570,7.7 576,6.8 582,5.0 588,2.6 594,0.1 600,-1.9 606,-3.2 612,-3.6 618,-3.5 624,-3.1 630,-2.8 636,-2.6 642,-2.8 648,-3.0 654,-3.3 660,-3.2 666,-2.7 672,-1.7 678,-0.4 684,0.9 690,2.1 696,2.9 702,3.2 708,3.0 714,2.5 720,2.0 726,1.6 732,1.5 738,1.7 744,1.9 750,1.9 756,1.3 762,-0.1 768,-2.2 774,-4.4 780,-6.3 786,-7.3 792,-7.0 798,-5.4 804,-3.0 810,-0.3 816,1.9 822,3.3 828,3.8 834,3.8 840,4.2 846,5.4 852,7.8 858,11.1 864,14.3 870,16.3 876,16.0 882,12.9 888,7.3 894,0.4 900,-6.5 906,-11.9 912,-15.0 918,-15.8 924,-15.2 930,-14.6 936,-14.9 942,-16.8 948,-19.6 954,-22.2 960,-22.7 966,-19.8 972,-13.2 978,-3.5 984,7.3 990,16.9 996,23.2 1002,25.2 1008,23.3 1014,19.0 1020,14.4 1026,11.2 1032,10.2 1038,11.0 1044,12.0 1050,11.1 1056,7.0 1062,-0.7 1068,-10.9 1074,-21.1 1080,-28.6 1086,-31.4 1092,-28.6 1098,-21.0 1104,-11.0 1110,-1.1 1116,6.4 1122,10.3 1128,11.3 1134,11.0 1140,11.3 1146,14.0 1152,19.3 1158,26.1 1164,32.1 1170,34.8 1176,32.6 1182,25.2 1188,13.7 1194,0.7 1200,-11.1 1206,-19.5 1212,-23.5 1218,-23.7 1224,-21.9 1230,-20.0 1236,-19.6 1242,-21.2 1248,-23.8 1254,-25.7 1260,-25.2 1266,-21.1 1272,-13.4 1278,-3.4 1284,6.8 1290,15.2 1296,20.0 1302,20.9 1308,18.5 1314,14.5 1320,10.5 1326,7.8 1332,6.8 1338,7.0 1344,7.3 1350,6.5 1356,3.9 1362,-0.4 1368,-5.6 1374,-10.3 1380,-13.4 1386,-14.0 1392,-12.1 1398,-8.5 1404,-4.2 1410,-0.4 1416,2.2 1422,3.4 1428,3.6 1434,3.3 1440,3.2 1446,3.8 1452,5.0 1458,6.4 1464,7.5 1470,7.7 1476,6.8 1482,5.0 1488,2.6 1494,0.1 1500,-1.9 1506,-3.2 1512,-3.6 1518,-3.5 1524,-3.1 1530,-2.8 1536,-2.6 1542,-2.8 1548,-3.0 1554,-3.3 1560,-3.2 1566,-2.7 1572,-1.7 1578,-0.4 1584,0.9 1590,2.1 1596,2.9 1602,3.2 1608,3.0 1614,2.5 1620,2.0 1626,1.6 1632,1.5 1638,1.7 1644,1.9 1650,1.9 1656,1.3 1662,-0.1 1668,-2.2 1674,-4.4 1680,-6.3 1686,-7.3 1692,-7.0 1698,-5.4 1704,-3.0 1710,-0.3 1716,1.9 1722,3.3 1728,3.8 1734,3.8 1740,4.2 1746,5.4 1752,7.8 1758,11.1 1764,14.3 1770,16.3 1776,16.0 1782,12.9 1788,7.3 1794,0.4 1800,-6.5 1806,-11.9 1812,-15.0 1818,-15.8 1824,-15.2 1830,-14.6 1836,-14.9 1842,-16.8 1848,-19.6 1854,-22.2 1860,-22.7 1866,-19.8 1872,-13.2 1878,-3.5 1884,7.3 1890,16.9 1896,23.2 1902,25.2 1908,23.3 1914,19.0 1920,14.4 1926,11.2 1932,10.2 1938,11.0 1944,12.0 1950,11.1 1956,7.0 1962,-0.7 1968,-10.9 1974,-21.1 1980,-28.6 1986,-31.4 1992,-28.6 1998,-21.0 2004,-11.0 2010,-1.1 2016,6.4 2022,10.3 2028,11.3 2034,11.0 2040,11.3 2046,14.0 2052,19.3 2058,26.1 2064,32.1 2070,34.8 2076,32.6 2082,25.2 2088,13.7 2094,0.7 2100,-11.1 2106,-19.5 2112,-23.5 2118,-23.7 2124,-21.9 2130,-20.0 2136,-19.6 2142,-21.2 2148,-23.8 2154,-25.7 2160,-25.2 2166,-21.1 2172,-13.4 2178,-3.4 2184,6.8 2190,15.2 2196,20.0 2202,20.9 2208,18.5 2214,14.5 2220,10.5 2226,7.8 2232,6.8 2238,7.0 2244,7.3 2250,6.5 2256,3.9 2262,-0.4 2268,-5.6 2274,-10.3 2280,-13.4 2286,-14.0 2292,-12.1 2298,-8.5 2304,-4.2 2310,-0.4 2316,2.2 2322,3.4 2328,3.6 2334,3.3 2340,3.2 2346,3.8 2352,5.0 2358,6.4 2364,7.5 2370,7.7 2376,6.8 2382,5.0 2388,2.6 2394,0.1 2400,-1.9 2406,-3.2 2412,-3.6 2418,-3.5 2424,-3.1 2430,-2.8 2436,-2.6 2442,-2.8 2448,-3.0 2454,-3.3 2460,-3.2 2466,-2.7 2472,-1.7 2478,-0.4 2484,0.9 2490,2.1 2496,2.9 2502,3.2 2508,3.0 2514,2.5 2520,2.0 2526,1.6 2532,1.5 2538,1.7 2544,1.9 2550,1.9 2556,1.3 2562,-0.1 2568,-2.2 2574,-4.4 2580,-6.3 2586,-7.3 2592,-7.0 2598,-5.4 2604,-3.0 2610,-0.3 2616,1.9 2622,3.3 2628,3.8 2634,3.8 2640,4.2 2646,5.4 2652,7.8 2658,11.1 2664,14.3 2670,16.3 2676,16.0 2682,12.9 2688,7.3 2694,0.4 2700,-6.5" fill="none" stroke="#36BCF7" stroke-opacity="0.35" stroke-width="5" stroke-linejoin="round" stroke-linecap="round" filter="url(#soft)"/>
        <polyline points="0,-6.5 6,-11.9 12,-15.0 18,-15.8 24,-15.2 30,-14.6 36,-14.9 42,-16.8 48,-19.6 54,-22.2 60,-22.7 66,-19.8 72,-13.2 78,-3.5 84,7.3 90,16.9 96,23.2 102,25.2 108,23.3 114,19.0 120,14.4 126,11.2 132,10.2 138,11.0 144,12.0 150,11.1 156,7.0 162,-0.7 168,-10.9 174,-21.1 180,-28.6 186,-31.4 192,-28.6 198,-21.0 204,-11.0 210,-1.1 216,6.4 222,10.3 228,11.3 234,11.0 240,11.3 246,14.0 252,19.3 258,26.1 264,32.1 270,34.8 276,32.6 282,25.2 288,13.7 294,0.7 300,-11.1 306,-19.5 312,-23.5 318,-23.7 324,-21.9 330,-20.0 336,-19.6 342,-21.2 348,-23.8 354,-25.7 360,-25.2 366,-21.1 372,-13.4 378,-3.4 384,6.8 390,15.2 396,20.0 402,20.9 408,18.5 414,14.5 420,10.5 426,7.8 432,6.8 438,7.0 444,7.3 450,6.5 456,3.9 462,-0.4 468,-5.6 474,-10.3 480,-13.4 486,-14.0 492,-12.1 498,-8.5 504,-4.2 510,-0.4 516,2.2 522,3.4 528,3.6 534,3.3 540,3.2 546,3.8 552,5.0 558,6.4 564,7.5 570,7.7 576,6.8 582,5.0 588,2.6 594,0.1 600,-1.9 606,-3.2 612,-3.6 618,-3.5 624,-3.1 630,-2.8 636,-2.6 642,-2.8 648,-3.0 654,-3.3 660,-3.2 666,-2.7 672,-1.7 678,-0.4 684,0.9 690,2.1 696,2.9 702,3.2 708,3.0 714,2.5 720,2.0 726,1.6 732,1.5 738,1.7 744,1.9 750,1.9 756,1.3 762,-0.1 768,-2.2 774,-4.4 780,-6.3 786,-7.3 792,-7.0 798,-5.4 804,-3.0 810,-0.3 816,1.9 822,3.3 828,3.8 834,3.8 840,4.2 846,5.4 852,7.8 858,11.1 864,14.3 870,16.3 876,16.0 882,12.9 888,7.3 894,0.4 900,-6.5 906,-11.9 912,-15.0 918,-15.8 924,-15.2 930,-14.6 936,-14.9 942,-16.8 948,-19.6 954,-22.2 960,-22.7 966,-19.8 972,-13.2 978,-3.5 984,7.3 990,16.9 996,23.2 1002,25.2 1008,23.3 1014,19.0 1020,14.4 1026,11.2 1032,10.2 1038,11.0 1044,12.0 1050,11.1 1056,7.0 1062,-0.7 1068,-10.9 1074,-21.1 1080,-28.6 1086,-31.4 1092,-28.6 1098,-21.0 1104,-11.0 1110,-1.1 1116,6.4 1122,10.3 1128,11.3 1134,11.0 1140,11.3 1146,14.0 1152,19.3 1158,26.1 1164,32.1 1170,34.8 1176,32.6 1182,25.2 1188,13.7 1194,0.7 1200,-11.1 1206,-19.5 1212,-23.5 1218,-23.7 1224,-21.9 1230,-20.0 1236,-19.6 1242,-21.2 1248,-23.8 1254,-25.7 1260,-25.2 1266,-21.1 1272,-13.4 1278,-3.4 1284,6.8 1290,15.2 1296,20.0 1302,20.9 1308,18.5 1314,14.5 1320,10.5 1326,7.8 1332,6.8 1338,7.0 1344,7.3 1350,6.5 1356,3.9 1362,-0.4 1368,-5.6 1374,-10.3 1380,-13.4 1386,-14.0 1392,-12.1 1398,-8.5 1404,-4.2 1410,-0.4 1416,2.2 1422,3.4 1428,3.6 1434,3.3 1440,3.2 1446,3.8 1452,5.0 1458,6.4 1464,7.5 1470,7.7 1476,6.8 1482,5.0 1488,2.6 1494,0.1 1500,-1.9 1506,-3.2 1512,-3.6 1518,-3.5 1524,-3.1 1530,-2.8 1536,-2.6 1542,-2.8 1548,-3.0 1554,-3.3 1560,-3.2 1566,-2.7 1572,-1.7 1578,-0.4 1584,0.9 1590,2.1 1596,2.9 1602,3.2 1608,3.0 1614,2.5 1620,2.0 1626,1.6 1632,1.5 1638,1.7 1644,1.9 1650,1.9 1656,1.3 1662,-0.1 1668,-2.2 1674,-4.4 1680,-6.3 1686,-7.3 1692,-7.0 1698,-5.4 1704,-3.0 1710,-0.3 1716,1.9 1722,3.3 1728,3.8 1734,3.8 1740,4.2 1746,5.4 1752,7.8 1758,11.1 1764,14.3 1770,16.3 1776,16.0 1782,12.9 1788,7.3 1794,0.4 1800,-6.5 1806,-11.9 1812,-15.0 1818,-15.8 1824,-15.2 1830,-14.6 1836,-14.9 1842,-16.8 1848,-19.6 1854,-22.2 1860,-22.7 1866,-19.8 1872,-13.2 1878,-3.5 1884,7.3 1890,16.9 1896,23.2 1902,25.2 1908,23.3 1914,19.0 1920,14.4 1926,11.2 1932,10.2 1938,11.0 1944,12.0 1950,11.1 1956,7.0 1962,-0.7 1968,-10.9 1974,-21.1 1980,-28.6 1986,-31.4 1992,-28.6 1998,-21.0 2004,-11.0 2010,-1.1 2016,6.4 2022,10.3 2028,11.3 2034,11.0 2040,11.3 2046,14.0 2052,19.3 2058,26.1 2064,32.1 2070,34.8 2076,32.6 2082,25.2 2088,13.7 2094,0.7 2100,-11.1 2106,-19.5 2112,-23.5 2118,-23.7 2124,-21.9 2130,-20.0 2136,-19.6 2142,-21.2 2148,-23.8 2154,-25.7 2160,-25.2 2166,-21.1 2172,-13.4 2178,-3.4 2184,6.8 2190,15.2 2196,20.0 2202,20.9 2208,18.5 2214,14.5 2220,10.5 2226,7.8 2232,6.8 2238,7.0 2244,7.3 2250,6.5 2256,3.9 2262,-0.4 2268,-5.6 2274,-10.3 2280,-13.4 2286,-14.0 2292,-12.1 2298,-8.5 2304,-4.2 2310,-0.4 2316,2.2 2322,3.4 2328,3.6 2334,3.3 2340,3.2 2346,3.8 2352,5.0 2358,6.4 2364,7.5 2370,7.7 2376,6.8 2382,5.0 2388,2.6 2394,0.1 2400,-1.9 2406,-3.2 2412,-3.6 2418,-3.5 2424,-3.1 2430,-2.8 2436,-2.6 2442,-2.8 2448,-3.0 2454,-3.3 2460,-3.2 2466,-2.7 2472,-1.7 2478,-0.4 2484,0.9 2490,2.1 2496,2.9 2502,3.2 2508,3.0 2514,2.5 2520,2.0 2526,1.6 2532,1.5 2538,1.7 2544,1.9 2550,1.9 2556,1.3 2562,-0.1 2568,-2.2 2574,-4.4 2580,-6.3 2586,-7.3 2592,-7.0 2598,-5.4 2604,-3.0 2610,-0.3 2616,1.9 2622,3.3 2628,3.8 2634,3.8 2640,4.2 2646,5.4 2652,7.8 2658,11.1 2664,14.3 2670,16.3 2676,16.0 2682,12.9 2688,7.3 2694,0.4 2700,-6.5" fill="none" stroke="#36BCF7" stroke-width="2.4" stroke-linejoin="round" stroke-linecap="round"/>
        <animateTransform attributeName="transform" type="translate" from="0,0" to="-900,0" dur="7s" repeatCount="indefinite"/>
      </g>
    </g>
  </g>

  <!-- identity overlay -->
  <text x="40" y="112" class="sans" font-size="46" font-weight="800" fill="#eaf6ff" letter-spacing="1">WILLIAM <tspan fill="#36BCF7">HO</tspan></text>
  <text x="43" y="140" class="mono" font-size="14" fill="#8fb6cf" letter-spacing="2">EMBEDDED SYSTEMS · BLUETOOTH AUDIO · DSP</text>
  <text x="974" y="235" text-anchor="end" class="mono" font-size="11.5" fill="#5f829b">LDAC · aptX-HD · LHDC v5 · LC3plus · Opus</text>
</svg>